<svg width="459" height="447" viewBox="0 0 459 447" fill="none" xmlns="http://www.w3.org/2000/svg">
<path d="M350.67 196.304C344.148 202.672 339.154 210.357 336.043 218.811C332.932 227.266 331.781 236.283 332.67 245.219L332.361 244.918C333.276 255.437 331.814 266.022 328.078 275.937C324.342 285.85 318.423 294.853 310.732 302.318C303.041 309.781 293.764 315.527 283.548 319.151C273.333 322.777 262.425 324.196 251.588 323.308L251.898 323.609C238.933 322.438 225.912 325.175 214.609 331.449C203.306 337.723 194.272 347.227 188.74 358.667C183.208 370.106 181.444 382.922 183.691 395.37C185.94 407.817 192.089 419.288 201.3 428.219C210.511 437.15 222.336 443.107 235.163 445.276C247.991 447.447 261.195 445.724 272.977 440.345C284.759 434.964 294.543 426.19 300.998 415.215C307.453 404.239 310.263 391.601 309.044 379.019L309.371 379.32C308.456 368.802 309.917 358.216 313.653 348.301C317.388 338.388 323.31 329.385 331 321.92C338.691 314.457 347.968 308.71 358.183 305.087C368.399 301.461 379.305 300.041 390.144 300.93L389.817 300.629C400.407 301.553 411.067 299.868 420.808 295.73C430.548 291.591 439.055 285.133 445.539 276.955C452.023 268.777 456.277 259.142 457.901 248.945C459.527 238.746 458.474 228.315 454.84 218.616C451.206 208.918 445.107 200.267 437.111 193.465C429.114 186.664 419.478 181.931 409.095 179.706C398.712 177.482 387.918 177.836 377.713 180.737C367.509 183.639 358.226 188.993 350.721 196.304H350.67Z" fill="url(#paint0_linear_45_10)"/>
<path d="M223.726 284.23L223.399 283.929C232.611 284.829 241.913 283.732 250.636 280.716C259.357 277.7 267.279 272.842 273.828 266.491C280.376 260.14 285.39 252.455 288.503 243.993C291.618 235.531 292.755 226.505 291.834 217.563L292.161 217.864C291.246 207.345 292.708 196.76 296.443 186.845C300.178 176.932 306.099 167.929 313.79 160.464C321.481 153.001 330.758 147.255 340.973 143.631C351.189 140.005 362.095 138.586 372.934 139.474L372.607 139.174C385.573 140.356 398.598 137.626 409.907 131.36C421.217 125.093 430.258 115.593 435.799 104.155C441.34 92.7182 443.111 79.9004 440.87 67.4504C438.63 55.0004 432.487 43.5245 423.277 34.5876C414.069 25.651 402.244 19.6884 389.416 17.5137C376.587 15.3389 363.38 17.0575 351.595 22.4352C339.809 27.8128 330.022 36.5878 323.564 47.5632C317.106 58.5384 314.294 71.1798 315.512 83.7629L315.202 83.4456C316.12 93.9648 314.66 104.552 310.926 114.467C307.192 124.382 301.271 133.386 293.581 140.852C285.889 148.315 276.611 154.062 266.394 157.686C256.177 161.309 245.269 162.726 234.429 161.835L234.739 162.153C225.528 161.253 216.224 162.35 207.503 165.366C198.782 168.38 190.86 173.24 184.31 179.591C177.761 185.942 172.748 193.627 169.634 202.089C166.521 210.551 165.384 219.577 166.304 228.519L165.994 228.218C166.906 238.736 165.442 249.32 161.706 259.233C157.969 269.145 152.049 278.148 144.359 285.611C136.668 293.074 127.393 298.819 117.179 302.446C106.965 306.072 96.0591 307.493 85.2216 306.608L85.5313 306.908C72.5656 305.726 59.5399 308.455 48.2309 314.722C36.922 320.99 27.8802 330.489 22.3391 341.927C16.7979 353.364 15.0269 366.182 17.2679 378.631C19.5088 391.081 25.6526 402.558 34.861 411.494C44.0695 420.432 55.8943 426.393 68.7228 428.568C81.5513 430.742 94.7588 429.024 106.544 423.646C118.329 418.269 128.118 409.495 134.575 398.52C141.033 387.543 143.845 374.902 142.626 362.319L142.953 362.62C142.038 352.1 143.501 341.516 147.236 331.601C150.97 321.688 156.892 312.685 164.582 305.22C172.274 297.757 181.55 292.01 191.765 288.386C201.981 284.761 212.887 283.341 223.726 284.23Z" fill="url(#paint1_linear_45_10)"/>
<path d="M108.401 250.712C114.923 244.346 119.917 236.661 123.025 228.205C126.133 219.75 127.28 210.732 126.383 201.798L126.71 202.098C125.795 191.577 127.257 180.988 130.994 171.071C134.732 161.155 140.655 152.15 148.351 144.685C156.046 137.221 165.326 131.476 175.546 127.853C185.765 124.23 196.677 122.815 207.518 123.708L207.191 123.408C220.151 124.586 233.173 121.856 244.476 115.59C255.78 109.323 264.816 99.8254 270.355 88.3918C275.892 76.9579 277.661 64.1449 275.421 51.6995C273.18 39.2542 267.037 27.7826 257.833 18.8491C248.628 9.91562 236.807 3.95505 223.984 1.78038C211.16 -0.394461 197.957 1.32263 186.177 6.69703C174.394 12.0714 164.608 20.8418 158.152 31.812C151.694 42.7822 148.881 55.4184 150.095 67.9972L149.786 67.6966C150.701 78.2151 149.239 88.8007 145.503 98.7145C141.767 108.628 135.848 117.631 128.157 125.096C120.466 132.56 111.189 138.305 100.974 141.93C90.7584 145.555 79.8511 146.975 69.0128 146.086L69.3226 146.387C58.7324 145.465 48.0738 147.154 38.3346 151.293C28.5954 155.433 20.0905 161.893 13.6082 170.073C7.12588 178.251 2.87592 187.887 1.25186 198.084C-0.372031 208.282 0.682628 218.713 4.3181 228.409C7.95357 238.107 14.0525 246.756 22.0494 253.556C30.0464 260.358 39.6827 265.089 50.0654 267.313C60.448 269.536 71.2412 269.18 81.4449 266.28C91.6483 263.377 100.932 258.023 108.435 250.712H108.401Z" fill="url(#paint2_linear_45_10)"/>
<defs>
<linearGradient id="paint0_linear_45_10" x1="320.693" y1="178.264" x2="320.693" y2="446.189" gradientUnits="userSpaceOnUse">
<stop stop-color="#3CC889"/>
<stop offset="1" stop-color="#62E763"/>
</linearGradient>
<linearGradient id="paint1_linear_45_10" x1="229.069" y1="16.5974" x2="229.069" y2="429.484" gradientUnits="userSpaceOnUse">
<stop stop-color="#3CC889"/>
<stop offset="1" stop-color="#62E763"/>
</linearGradient>
<linearGradient id="paint2_linear_45_10" x1="138.438" y1="0.863708" x2="138.438" y2="268.753" gradientUnits="userSpaceOnUse">
<stop stop-color="#3CC889"/>
<stop offset="1" stop-color="#62E763"/>
</linearGradient>
</defs>
</svg>
