<svg width="2057" height="491" viewBox="0 0 2057 491" fill="none" xmlns="http://www.w3.org/2000/svg">
<g clip-path="url(#clip0_8_2)">
<path d="M350.67 230.304C344.148 236.672 339.154 244.358 336.043 252.811C332.932 261.266 331.781 270.283 332.67 279.219L332.361 278.918C333.276 289.437 331.814 300.022 328.078 309.937C324.342 319.85 318.423 328.853 310.732 336.318C303.041 343.781 293.764 349.527 283.548 353.151C273.333 356.777 262.425 358.196 251.588 357.308L251.898 357.609C238.933 356.438 225.912 359.175 214.609 365.449C203.306 371.723 194.272 381.227 188.74 392.667C183.208 404.106 181.444 416.922 183.691 429.37C185.94 441.817 192.089 453.288 201.3 462.219C210.511 471.15 222.336 477.107 235.163 479.276C247.991 481.447 261.195 479.724 272.977 474.345C284.759 468.964 294.543 460.19 300.998 449.215C307.453 438.24 310.263 425.601 309.044 413.019L309.371 413.32C308.456 402.802 309.917 392.216 313.653 382.301C317.388 372.388 323.31 363.385 331 355.92C338.691 348.457 347.968 342.71 358.183 339.087C368.399 335.461 379.305 334.042 390.144 334.93L389.817 334.629C400.407 335.553 411.067 333.868 420.808 329.73C430.548 325.591 439.055 319.133 445.539 310.955C452.023 302.777 456.277 293.142 457.901 282.945C459.527 272.746 458.474 262.315 454.84 252.616C451.206 242.918 445.107 234.267 437.111 227.465C429.114 220.664 419.478 215.931 409.095 213.706C398.712 211.482 387.918 211.836 377.713 214.737C367.509 217.639 358.226 222.993 350.721 230.304H350.67Z" fill="url(#paint0_linear_8_2)"/>
<path d="M223.726 318.23L223.399 317.929C232.61 318.829 241.913 317.732 250.636 314.716C259.356 311.7 267.279 306.842 273.828 300.491C280.376 294.14 285.39 286.455 288.503 277.993C291.617 269.531 292.755 260.505 291.834 251.563L292.161 251.864C291.246 241.345 292.708 230.76 296.442 220.845C300.178 210.932 306.099 201.929 313.789 194.464C321.481 187.001 330.758 181.255 340.972 177.631C351.189 174.005 362.095 172.586 372.934 173.474L372.607 173.174C385.573 174.356 398.598 171.626 409.907 165.36C421.217 159.093 430.258 149.593 435.799 138.155C441.34 126.718 443.11 113.9 440.87 101.45C438.63 89.0004 432.486 77.5245 423.277 68.5876C414.069 59.651 402.244 53.6884 389.416 51.5137C376.587 49.3389 363.38 51.0575 351.595 56.4352C339.809 61.8128 330.022 70.5878 323.563 81.5632C317.105 92.5384 314.294 105.18 315.512 117.763L315.202 117.446C316.119 127.965 314.66 138.552 310.926 148.467C307.192 158.382 301.271 167.386 293.581 174.852C285.889 182.315 276.611 188.062 266.394 191.685C256.176 195.309 245.268 196.726 234.429 195.835L234.739 196.153C225.528 195.253 216.224 196.35 207.503 199.366C198.782 202.38 190.859 207.24 184.31 213.591C177.761 219.942 172.748 227.627 169.634 236.089C166.521 244.551 165.383 253.577 166.304 262.519L165.994 262.218C166.906 272.736 165.442 283.32 161.706 293.233C157.969 303.145 152.049 312.148 144.359 319.611C136.668 327.074 127.393 332.819 117.179 336.446C106.965 340.072 96.059 341.493 85.2214 340.608L85.5312 340.908C72.5655 339.726 59.5398 342.455 48.2307 348.722C36.9218 354.99 27.8801 364.489 22.339 375.927C16.7978 387.364 15.0268 400.182 17.2677 412.631C19.5087 425.081 25.6525 436.558 34.8609 445.494C44.0694 454.432 55.8942 460.393 68.7227 462.568C81.5512 464.742 94.7586 463.024 106.544 457.646C118.329 452.269 128.117 443.495 134.575 432.52C141.033 421.543 143.845 408.902 142.626 396.319L142.953 396.62C142.038 386.1 143.5 375.516 147.236 365.601C150.97 355.688 156.891 346.685 164.582 339.22C172.273 331.757 181.55 326.01 191.765 322.386C201.981 318.761 212.887 317.341 223.726 318.23Z" fill="url(#paint1_linear_8_2)"/>
<path d="M108.401 284.712C114.923 278.346 119.917 270.661 123.025 262.205C126.133 253.75 127.28 244.732 126.383 235.798L126.71 236.098C125.795 225.577 127.257 214.988 130.994 205.071C134.732 195.155 140.655 186.15 148.351 178.685C156.046 171.221 165.326 165.476 175.546 161.853C185.765 158.23 196.677 156.815 207.518 157.708L207.191 157.408C220.151 158.586 233.173 155.856 244.476 149.59C255.78 143.323 264.816 133.825 270.355 122.392C275.892 110.958 277.661 98.1449 275.421 85.6995C273.18 73.2542 267.037 61.7826 257.833 52.8491C248.628 43.9156 236.807 37.9551 223.984 35.7804C211.16 33.6055 197.957 35.3226 186.177 40.697C174.394 46.0714 164.608 54.8418 158.152 65.812C151.694 76.7822 148.881 89.4185 150.095 101.997L149.786 101.697C150.701 112.215 149.239 122.801 145.503 132.715C141.767 142.628 135.848 151.631 128.157 159.096C120.466 166.56 111.189 172.305 100.974 175.93C90.7584 179.555 79.8511 180.975 69.0128 180.086L69.3226 180.387C58.7324 179.465 48.0738 181.154 38.3346 185.293C28.5954 189.433 20.0905 195.893 13.6082 204.073C7.12588 212.251 2.87592 221.887 1.25186 232.084C-0.372031 242.282 0.682628 252.713 4.3181 262.409C7.95357 272.107 14.0525 280.756 22.0494 287.556C30.0464 294.358 39.6827 299.089 50.0654 301.313C60.448 303.536 71.2412 303.18 81.4449 300.28C91.6483 297.377 100.932 292.023 108.435 284.712H108.401Z" fill="url(#paint2_linear_8_2)"/>
<path d="M652.328 209.91C652.328 216.59 655.935 221.934 663.15 225.942C670.631 229.683 679.582 233.023 690.003 235.962C700.691 238.634 711.379 241.841 722.067 245.582C732.755 249.322 741.706 255.735 748.921 264.82C756.402 273.638 760.143 284.86 760.143 298.487C760.143 317.726 752.662 332.822 737.698 343.778C723.002 354.733 704.432 360.21 681.987 360.21C662.214 360.21 645.247 356.069 631.086 347.786C616.924 339.502 606.637 328.013 600.224 313.317L637.498 291.674C644.446 310.912 659.275 320.531 681.987 320.531C704.699 320.531 716.055 313.05 716.055 298.086C716.055 291.674 712.314 286.463 704.833 282.455C697.618 278.447 688.667 275.107 677.979 272.435C667.558 269.496 657.004 266.156 646.316 262.415C635.628 258.674 626.543 252.529 619.062 243.978C611.847 235.161 608.24 224.072 608.24 210.712C608.24 192.275 615.187 177.446 629.082 166.223C643.243 155.001 660.745 149.39 681.586 149.39C698.153 149.39 712.849 153.13 725.674 160.612C738.767 167.826 748.787 177.98 755.734 191.073L719.262 211.514C712.314 196.283 699.756 188.668 681.586 188.668C673.303 188.668 666.356 190.538 660.745 194.279C655.134 197.753 652.328 202.963 652.328 209.91ZM918.891 154.6H962.178V355H918.891V329.349C905.799 349.923 885.091 360.21 856.767 360.21C833.788 360.21 815.218 352.862 801.056 338.166C786.895 323.47 779.814 303.297 779.814 277.646V154.6H823.1V273.237C823.1 288.2 827.108 299.69 835.124 307.706C843.14 315.722 854.095 319.73 867.99 319.73C883.22 319.73 895.511 315.054 904.863 305.702C914.215 296.082 918.891 281.52 918.891 262.014V154.6ZM1038.47 209.91C1038.47 216.59 1042.08 221.934 1049.3 225.942C1056.78 229.683 1065.73 233.023 1076.15 235.962C1086.84 238.634 1097.53 241.841 1108.21 245.582C1118.9 249.322 1127.85 255.735 1135.07 264.82C1142.55 273.638 1146.29 284.86 1146.29 298.487C1146.29 317.726 1138.81 332.822 1123.84 343.778C1109.15 354.733 1090.58 360.21 1068.13 360.21C1048.36 360.21 1031.39 356.069 1017.23 347.786C1003.07 339.502 992.783 328.013 986.37 313.317L1023.64 291.674C1030.59 310.912 1045.42 320.531 1068.13 320.531C1090.85 320.531 1102.2 313.05 1102.2 298.086C1102.2 291.674 1098.46 286.463 1090.98 282.455C1083.76 278.447 1074.81 275.107 1064.13 272.435C1053.7 269.496 1043.15 266.156 1032.46 262.415C1021.77 258.674 1012.69 252.529 1005.21 243.978C997.993 235.161 994.386 224.072 994.386 210.712C994.386 192.275 1001.33 177.446 1015.23 166.223C1029.39 155.001 1046.89 149.39 1067.73 149.39C1084.3 149.39 1098.99 153.13 1111.82 160.612C1124.91 167.826 1134.93 177.98 1141.88 191.073L1105.41 211.514C1098.46 196.283 1085.9 188.668 1067.73 188.668C1059.45 188.668 1052.5 190.538 1046.89 194.279C1041.28 197.753 1038.47 202.963 1038.47 209.91ZM1276.31 196.283H1226.61V292.475C1226.61 300.758 1228.48 306.77 1232.22 310.511C1235.96 313.985 1241.44 315.989 1248.66 316.523C1256.14 316.79 1265.36 316.657 1276.31 316.122V355C1243.18 359.008 1219.4 356.202 1204.97 346.583C1190.54 336.697 1183.33 318.661 1183.33 292.475V196.283H1146.45V154.6H1183.33V111.314L1226.61 98.488V154.6H1276.31V196.283ZM1329.4 273.237C1332.6 288.467 1339.95 300.224 1351.44 308.507C1362.93 316.523 1376.96 320.531 1393.52 320.531C1416.5 320.531 1433.74 312.248 1445.23 295.682L1480.9 316.523C1461.12 345.648 1431.87 360.21 1393.12 360.21C1360.52 360.21 1334.2 350.324 1314.16 330.551C1294.12 310.511 1284.1 285.261 1284.1 254.8C1284.1 224.874 1293.99 199.89 1313.76 179.85C1333.54 159.543 1358.92 149.39 1389.92 149.39C1419.31 149.39 1443.36 159.677 1462.06 180.251C1481.03 200.826 1490.52 225.809 1490.52 255.201C1490.52 259.743 1489.98 265.755 1488.91 273.237H1329.4ZM1328.99 237.966H1446.83C1443.89 221.667 1437.08 209.376 1426.39 201.093C1415.97 192.81 1403.68 188.668 1389.52 188.668C1373.48 188.668 1360.12 193.077 1349.44 201.894C1338.75 210.712 1331.93 222.736 1328.99 237.966ZM1559.87 188.267C1570.82 163.418 1591.4 150.993 1621.59 150.993V197.886C1605.02 196.818 1590.6 200.826 1578.3 209.91C1566.01 218.728 1559.87 233.424 1559.87 253.998V355H1516.58V154.6H1559.87V188.267ZM1791.67 154.6H1834.16V345.782C1834.16 376.242 1824.14 399.622 1804.1 415.922C1784.06 432.221 1759.74 440.37 1731.15 440.37C1684.93 440.37 1653.26 424.205 1636.16 391.874L1673.44 370.23C1683.86 390.805 1703.36 401.092 1731.95 401.092C1750.66 401.092 1765.22 396.149 1775.64 386.262C1786.33 376.643 1791.67 363.15 1791.67 345.782V321.333C1775.37 344.579 1752.13 356.202 1721.93 356.202C1693.61 356.202 1669.7 346.182 1650.19 326.142C1630.69 305.835 1620.93 281.386 1620.93 252.796C1620.93 224.206 1630.69 199.89 1650.19 179.85C1669.7 159.543 1693.61 149.39 1721.93 149.39C1752.13 149.39 1775.37 161.013 1791.67 184.259V154.6ZM1682.26 297.686C1694.55 309.71 1709.78 315.722 1727.95 315.722C1746.12 315.722 1761.21 309.71 1773.24 297.686C1785.53 285.662 1791.67 270.698 1791.67 252.796C1791.67 234.894 1785.53 219.93 1773.24 207.906C1761.21 195.882 1746.12 189.87 1727.95 189.87C1709.78 189.87 1694.55 195.882 1682.26 207.906C1670.23 219.93 1664.22 234.894 1664.22 252.796C1664.22 270.698 1670.23 285.662 1682.26 297.686ZM2007.66 154.6H2053.75L1976.8 361.413C1957.56 413.25 1924.96 437.832 1879 435.16V394.679C1892.63 395.481 1903.58 392.542 1911.87 385.862C1920.15 379.449 1926.96 369.295 1932.31 355.401L1934.31 351.393L1849.34 154.6H1896.64L1956.36 300.09L2007.66 154.6Z" fill="white"/>
</g>
<defs>
<linearGradient id="paint0_linear_8_2" x1="320.693" y1="212.265" x2="320.693" y2="480.189" gradientUnits="userSpaceOnUse">
<stop stop-color="#3CC889"/>
<stop offset="1" stop-color="#62E763"/>
</linearGradient>
<linearGradient id="paint1_linear_8_2" x1="229.069" y1="50.5974" x2="229.069" y2="463.484" gradientUnits="userSpaceOnUse">
<stop stop-color="#3CC889"/>
<stop offset="1" stop-color="#62E763"/>
</linearGradient>
<linearGradient id="paint2_linear_8_2" x1="138.438" y1="34.8637" x2="138.438" y2="302.753" gradientUnits="userSpaceOnUse">
<stop stop-color="#3CC889"/>
<stop offset="1" stop-color="#62E763"/>
</linearGradient>
<clipPath id="clip0_8_2">
<rect width="2056.2" height="491" fill="white"/>
</clipPath>
</defs>
</svg>
